<svg xmlns="http://www.w3.org/2000/svg" viewBox="0 0 512 512" stroke="while">
  <g>
    <path d="M448,64H64c-17.6,0-32,14.4-32,32v320c0,17.6,14.4,32,32,32h384c17.6,0,32-14.4,32-32V96C480,78.4,465.6,64,448,64z
       M448,416H64V96h384V416z"/>
    <path d="M160,160h192c8.8,0,16-7.2,16-16s-7.2-16-16-16H160c-8.8,0-16,7.2-16,16S151.2,160,160,160z"/>
    <path d="M160,224h192c8.8,0,16-7.2,16-16s-7.2-16-16-16H160c-8.8,0-16,7.2-16,16S151.2,224,160,224z"/>
    <path d="M160,288h128c8.8,0,16-7.2,16-16s-7.2-16-16-16H160c-8.8,0-16,7.2-16,16S151.2,288,160,288z"/>
    <path d="M384,352H160c-8.8,0-16,7.2-16,16s7.2,16,16,16h224c8.8,0,16-7.2,16-16S392.8,352,384,352z"/>
  </g>
</svg>
